<svg width="32" height="32" viewBox="0 0 1024 1024" xmlns="http://www.w3.org/2000/svg">
  <style>
    .bg { fill: #F9F6F4; }
    .logo { fill: #5C1F33; }
    @media (prefers-color-scheme: dark) {
      .bg { fill: #5C1F33; }
      .logo { fill: #F9F6F4; }
    }
  </style>
  <rect class="bg" width="1024" height="1024" rx="200"/>
  <g transform="translate(512,512) scale(0.82) translate(-512,-512)">
  <g transform="matrix(1.40711,0,0,1.40711,-242.304,-146.34)">
    <path class="logo" d="M275.434,523.307L272.646,521.278L268.521,514.106L267.671,507.264L268.849,501.454L272.087,495.162C278.542,485.697 287.533,471.491 293.166,461.856L297.856,453.833L298.314,446.779C299.2,433.126 302.366,416.725 304.867,409.562L307.802,403.259L311.91,398.471L314.033,397.218C305.89,369.237 302.786,334.98 302.294,277.16C301.986,240.998 302.523,228.388 305.179,205.799C307.973,182.031 312.761,163.761 318.628,151.734C324.611,139.466 332.419,132.305 340.107,129.027C353.892,123.15 365.739,123.437 386.052,136.687C391.542,140.268 399.334,146.118 403.382,149.669L403.383,149.67C421.807,165.832 464.529,218.979 496.017,265.353C497.086,266.927 498.119,268.434 499.103,269.857C503.49,262.729 515.769,242.615 527.055,222.584C566.479,152.605 577.748,138.119 590.971,129.149L590.973,129.148L600.369,124.538L605.062,123.579L611.113,123.428C622.104,124.046 630.735,127.162 641.46,148.55C648.26,162.114 652.305,175.957 656.715,203.522C659.108,218.48 659.283,270.877 656.913,295.32C656.072,303.982 655.062,311.638 654.561,315.03C661.012,320.02 667.399,325.876 674.968,333.491C701.409,360.094 701.506,364.353 702.035,379.858L702.035,379.86C702.319,388.23 703.191,395.918 704.702,400.886C705.379,401.736 709.7,407.097 712.426,408.785C724.947,416.541 731.917,419.718 761.636,431.872C791.998,444.289 812.94,455.389 818.335,460.431C829.529,470.893 833.451,493.299 822.61,514.563L812.293,534.789C800.827,557.267 790.991,566.652 778.493,572.099L778.491,572.1C776.134,573.128 773.633,575.141 771.029,577.63C761.161,587.058 751.481,593.199 739.778,597.63C726.572,602.63 718.166,604.161 685.173,605.34C657.795,606.317 645.452,607.314 636.477,610.673C622.622,615.86 613.414,621.992 612.819,632.108C612.366,639.798 615.126,649.333 622.575,673.433C625.878,684.12 626.379,690.26 626.067,692.808L623.531,700.474L618.154,706.494L616.204,707.532C616.406,710.35 616.538,713.383 616.598,716.666C616.942,735.243 614.882,745.854 607.468,763.354C601.557,777.305 596.579,784.872 584.706,797.444L576.205,806.444C570.995,811.961 562.986,813.816 555.881,811.151C548.776,808.487 543.961,801.823 543.663,794.24L543.585,792.269L540.076,792.391L535.173,791.203L529.166,787.512L525.328,782.868C525.506,783.159 526.112,784.016 526.112,784.016C526.112,784.016 514.196,772.272 508.723,768.046C504.479,764.768 495.284,758.473 488.303,754.038C469.829,742.305 454.777,731.407 443.052,721.438L440.065,723.934L432.705,726.112L426.972,725.718L421.98,723.893C418.151,721.96 400.936,710.767 392.329,704.436C377.34,693.413 361.627,677.865 348.79,662.03L344.722,663.999L337.857,664.552L330.997,662.565C327.104,660.646 310.409,644.681 303.637,635.159C301.272,631.833 299.106,628.559 297.104,625.275C295.349,626.175 293.433,626.81 291.408,627.126C283.366,628.381 275.427,624.334 271.719,617.09L268.077,609.974C261.795,597.703 259.527,585.575 261.172,567.869C262.557,552.972 266.457,539.936 275.434,523.307ZM501.634,269.152L503.069,268.139C502.817,268.265 502.28,268.654 501.634,269.152Z"/>
  </g>
  </g>
</svg>
